<svg width="190" height="13" viewBox="0 0 190 13" fill="none" xmlns="http://www.w3.org/2000/svg">
<path d="M8.94318 4.07955C8.84849 3.77273 8.7178 3.49811 8.55114 3.25568C8.38826 3.00947 8.19129 2.79924 7.96023 2.625C7.73295 2.45076 7.47159 2.32008 7.17614 2.23295C6.88068 2.14205 6.55871 2.09659 6.21023 2.09659C5.58523 2.09659 5.02841 2.25379 4.53977 2.56818C4.05114 2.88258 3.66667 3.3447 3.38636 3.95455C3.10985 4.56061 2.97159 5.29924 2.97159 6.17045C2.97159 7.04924 3.10985 7.79356 3.38636 8.40341C3.66288 9.01326 4.04735 9.47727 4.53977 9.79545C5.0322 10.1098 5.60417 10.267 6.25568 10.267C6.84659 10.267 7.35795 10.1534 7.78977 9.92614C8.22538 9.69886 8.56061 9.37689 8.79545 8.96023C9.0303 8.53977 9.14773 8.04735 9.14773 7.48295L9.625 7.55682H6.46591V5.90909H11.1875V7.30682C11.1875 8.30303 10.9754 9.16477 10.5511 9.89205C10.1269 10.6193 9.54356 11.1799 8.80114 11.5739C8.05871 11.964 7.20644 12.1591 6.24432 12.1591C5.17235 12.1591 4.23106 11.9186 3.42045 11.4375C2.61364 10.9527 1.98295 10.2652 1.52841 9.375C1.07765 8.48106 0.852273 7.42045 0.852273 6.19318C0.852273 5.25379 0.984848 4.41477 1.25 3.67614C1.51894 2.9375 1.89394 2.31061 2.375 1.79545C2.85606 1.27651 3.42045 0.882575 4.06818 0.613636C4.71591 0.340909 5.42045 0.204545 6.18182 0.204545C6.82576 0.204545 7.42614 0.299242 7.98295 0.488636C8.53977 0.674242 9.03409 0.939394 9.46591 1.28409C9.90152 1.62879 10.2595 2.03788 10.5398 2.51136C10.8201 2.98485 11.0038 3.50758 11.0909 4.07955H8.94318ZM22.8259 12V0.363636H24.9338V10.233H30.0588V12H22.8259ZM51.433 6.18182C51.433 7.43561 51.1981 8.50947 50.7284 9.40341C50.2625 10.2936 49.6261 10.9754 48.8193 11.4489C48.0163 11.9223 47.1053 12.1591 46.0864 12.1591C45.0674 12.1591 44.1545 11.9223 43.3477 11.4489C42.5447 10.9716 41.9083 10.2879 41.4386 9.39773C40.9727 8.50379 40.7398 7.43182 40.7398 6.18182C40.7398 4.92803 40.9727 3.85606 41.4386 2.96591C41.9083 2.07197 42.5447 1.38826 43.3477 0.914772C44.1545 0.441287 45.0674 0.204545 46.0864 0.204545C47.1053 0.204545 48.0163 0.441287 48.8193 0.914772C49.6261 1.38826 50.2625 2.07197 50.7284 2.96591C51.1981 3.85606 51.433 4.92803 51.433 6.18182ZM49.3136 6.18182C49.3136 5.29924 49.1754 4.55492 48.8989 3.94886C48.6261 3.33902 48.2473 2.87879 47.7625 2.56818C47.2777 2.25379 46.7189 2.09659 46.0864 2.09659C45.4538 2.09659 44.8951 2.25379 44.4102 2.56818C43.9254 2.87879 43.5447 3.33902 43.2682 3.94886C42.9955 4.55492 42.8591 5.29924 42.8591 6.18182C42.8591 7.06439 42.9955 7.81061 43.2682 8.42045C43.5447 9.02652 43.9254 9.48674 44.4102 9.80114C44.8951 10.1117 45.4538 10.267 46.0864 10.267C46.7189 10.267 47.2777 10.1117 47.7625 9.80114C48.2473 9.48674 48.6261 9.02652 48.8989 8.42045C49.1754 7.81061 49.3136 7.06439 49.3136 6.18182ZM65.1778 12L61.8938 0.363636H64.1608L66.2574 8.91477H66.3653L68.604 0.363636H70.6665L72.9108 8.92045H73.0131L75.1097 0.363636H77.3767L74.0926 12H72.0131L69.6835 3.83523H69.5926L67.2574 12H65.1778ZM101.496 2.13068V0.363636H110.78V2.13068H107.183V12H105.092V2.13068H101.496ZM122.17 12V0.363636H124.278V5.28977H129.67V0.363636H131.783V12H129.67V7.05682H124.278V12H122.17ZM145.784 0.363636V12H143.676V0.363636H145.784ZM167.229 0.363636V12H165.354L159.871 4.07386H159.774V12H157.666V0.363636H159.553L165.03 8.29545H165.132V0.363636H167.229ZM189.086 4.28977H186.961C186.9 3.94129 186.789 3.63258 186.626 3.36364C186.463 3.09091 186.26 2.85985 186.018 2.67045C185.775 2.48106 185.499 2.33901 185.188 2.24432C184.882 2.14583 184.55 2.09659 184.194 2.09659C183.561 2.09659 183.001 2.25568 182.512 2.57386C182.024 2.88826 181.641 3.35038 181.364 3.96023C181.088 4.56629 180.95 5.30682 180.95 6.18182C180.95 7.07197 181.088 7.82197 181.364 8.43182C181.645 9.03788 182.027 9.49621 182.512 9.80682C183.001 10.1136 183.56 10.267 184.188 10.267C184.537 10.267 184.863 10.2216 185.166 10.1307C185.472 10.036 185.747 9.89773 185.989 9.71591C186.236 9.53409 186.442 9.31061 186.609 9.04545C186.779 8.7803 186.897 8.47727 186.961 8.13636L189.086 8.14773C189.007 8.70076 188.834 9.2197 188.569 9.70455C188.308 10.1894 187.965 10.6174 187.541 10.9886C187.116 11.3561 186.62 11.6439 186.052 11.8523C185.484 12.0568 184.853 12.1591 184.16 12.1591C183.137 12.1591 182.224 11.9223 181.421 11.4489C180.618 10.9754 179.986 10.2917 179.524 9.39773C179.061 8.50379 178.83 7.43182 178.83 6.18182C178.83 4.92803 179.063 3.85606 179.529 2.96591C179.995 2.07197 180.63 1.38826 181.433 0.914772C182.236 0.441287 183.145 0.204545 184.16 0.204545C184.808 0.204545 185.41 0.295454 185.967 0.477272C186.524 0.659091 187.02 0.926136 187.455 1.27841C187.891 1.62689 188.249 2.05492 188.529 2.5625C188.813 3.06629 188.999 3.64205 189.086 4.28977Z" fill="#3199A8"/>
</svg>
