<svg width="12" height="13" viewBox="0 0 12 13" fill="none" xmlns="http://www.w3.org/2000/svg">
<path d="M8.94318 4.07955C8.84849 3.77273 8.7178 3.49811 8.55114 3.25568C8.38826 3.00947 8.19129 2.79924 7.96023 2.625C7.73295 2.45076 7.47159 2.32008 7.17614 2.23295C6.88068 2.14205 6.55871 2.09659 6.21023 2.09659C5.58523 2.09659 5.02841 2.25379 4.53977 2.56818C4.05114 2.88258 3.66667 3.3447 3.38636 3.95455C3.10985 4.56061 2.97159 5.29924 2.97159 6.17045C2.97159 7.04924 3.10985 7.79356 3.38636 8.40341C3.66288 9.01326 4.04735 9.47727 4.53977 9.79545C5.0322 10.1098 5.60417 10.267 6.25568 10.267C6.84659 10.267 7.35795 10.1534 7.78977 9.92614C8.22538 9.69886 8.56061 9.37689 8.79545 8.96023C9.0303 8.53977 9.14773 8.04735 9.14773 7.48295L9.625 7.55682H6.46591V5.90909H11.1875V7.30682C11.1875 8.30303 10.9754 9.16477 10.5511 9.89205C10.1269 10.6193 9.54356 11.1799 8.80114 11.5739C8.05871 11.964 7.20644 12.1591 6.24432 12.1591C5.17235 12.1591 4.23106 11.9186 3.42045 11.4375C2.61364 10.9527 1.98295 10.2652 1.52841 9.375C1.07765 8.48106 0.852273 7.42045 0.852273 6.19318C0.852273 5.25379 0.984848 4.41477 1.25 3.67614C1.51894 2.9375 1.89394 2.31061 2.375 1.79545C2.85606 1.27651 3.42045 0.882575 4.06818 0.613636C4.71591 0.340909 5.42045 0.204545 6.18182 0.204545C6.82576 0.204545 7.42614 0.299242 7.98295 0.488636C8.53977 0.674242 9.03409 0.939394 9.46591 1.28409C9.90152 1.62879 10.2595 2.03788 10.5398 2.51136C10.8201 2.98485 11.0038 3.50758 11.0909 4.07955H8.94318Z" fill="#3199A8"/>
</svg>
